<?xml version="1.0" standalone="no"?>
<!DOCTYPE svg PUBLIC "-//W3C//DTD SVG 20010904//EN"
 "http://www.w3.org/TR/2001/REC-SVG-20010904/DTD/svg10.dtd">
<svg version="1.0" xmlns="http://www.w3.org/2000/svg"
 width="300.000000pt" height="92.000000pt" viewBox="0 0 300.000000 92.000000"
 preserveAspectRatio="xMidYMid meet">

<g transform="translate(0.000000,92.000000) scale(0.100000,-0.100000)"
fill="#000000" stroke="none">
<path d="M1445 415 c-102 -36 -137 -164 -68 -245 94 -112 268 -58 280 87 9
114 -103 198 -212 158z m147 -167 l-52 -53 -27 28 -27 27 -38 -37 -38 -37 -30
29 c-27 25 -28 31 -16 44 13 12 18 12 31 1 14 -11 21 -8 53 23 l38 37 27 -27
27 -28 37 38 c33 33 39 35 53 22 13 -14 9 -21 -38 -67z"/>
</g>
</svg>
