<?xml version="1.0" standalone="no"?>
<!DOCTYPE svg PUBLIC "-//W3C//DTD SVG 20010904//EN"
 "http://www.w3.org/TR/2001/REC-SVG-20010904/DTD/svg10.dtd">
<svg version="1.0" xmlns="http://www.w3.org/2000/svg"
 width="121.000000pt" height="120.000000pt" viewBox="0 0 121.000000 120.000000"
 preserveAspectRatio="xMidYMid meet">

<g transform="translate(0.000000,120.000000) scale(0.100000,-0.100000)"
fill="#000000" stroke="none">
<path d="M515 1193 c-98 -13 -230 -75 -312 -147 -63 -56 -131 -156 -162 -239
-23 -64 -26 -86 -25 -202 0 -114 3 -139 26 -202 80 -222 287 -376 523 -390
248 -14 456 106 575 333 87 167 75 411 -27 567 -73 109 -184 204 -290 246 -82
32 -212 47 -308 34z m583 -416 l52 -52 -195 -195 -195 -195 -108 108 -107 107
-140 -140 -140 -140 -107 107 -108 108 55 55 55 55 52 -52 52 -52 143 136 144
137 105 -105 104 -104 138 138 c75 75 139 137 142 137 3 0 29 -24 58 -53z"/>
</g>
</svg>
