<?xml version="1.0" standalone="no"?>
<!DOCTYPE svg PUBLIC "-//W3C//DTD SVG 20010904//EN"
 "http://www.w3.org/TR/2001/REC-SVG-20010904/DTD/svg10.dtd">
<svg version="1.0" xmlns="http://www.w3.org/2000/svg"
 width="535.000000pt" height="120.000000pt" viewBox="0 0 535.000000 120.000000"
 preserveAspectRatio="xMidYMid meet">

<g transform="translate(0.000000,120.000000) scale(0.100000,-0.100000)"
fill="#000000" stroke="none">
<path d="M515 1193 c-98 -13 -230 -75 -312 -147 -63 -56 -131 -156 -162 -239
-23 -64 -26 -86 -25 -202 0 -114 3 -139 26 -202 80 -222 287 -376 523 -390
248 -14 456 106 575 333 87 167 75 411 -27 567 -73 109 -184 204 -290 246 -82
32 -212 47 -308 34z m583 -416 l52 -52 -195 -195 -195 -195 -108 108 -107 107
-140 -140 -140 -140 -107 107 -108 108 55 55 55 55 52 -52 52 -52 143 136 144
137 105 -105 104 -104 138 138 c75 75 139 137 142 137 3 0 29 -24 58 -53z"/>
<path d="M3390 1138 c-42 -45 -11 -108 54 -108 38 0 66 28 66 65 0 32 -36 65
-70 65 -17 0 -38 -9 -50 -22z"/>
<path d="M4602 1133 c-30 -20 -50 -44 -68 -81 -26 -56 -25 -82 2 -44 24 34 69
54 109 46 43 -8 85 -48 86 -83 4 -100 -18 -149 -132 -296 l-101 -130 178 -3
c97 -1 179 0 181 2 5 4 33 142 33 159 0 15 -19 6 -25 -13 -4 -11 -21 -24 -43
-30 -44 -12 -182 -14 -182 -2 0 4 18 26 41 47 63 62 147 176 164 224 8 24 15
62 15 85 0 119 -151 188 -258 119z"/>
<path d="M5083 963 c-132 -181 -143 -199 -143 -239 l0 -44 110 0 110 0 0 -70
0 -70 65 0 65 0 0 70 c0 68 1 70 25 70 23 0 25 4 25 45 0 41 -2 45 -25 45
l-25 0 0 195 0 195 -32 -1 c-31 0 -42 -12 -175 -196z m77 -78 l0 -115 -85 0
c-47 0 -85 2 -85 5 0 6 161 225 166 225 2 0 4 -52 4 -115z"/>
<path d="M1140 1140 c0 -5 7 -10 15 -10 20 0 43 -48 164 -344 58 -142 110
-259 114 -260 4 0 45 86 90 192 44 105 84 192 87 192 3 0 39 -88 79 -195 41
-107 78 -195 82 -195 4 0 10 8 14 18 4 9 49 129 101 265 106 279 128 327 149
327 8 0 15 5 15 10 0 6 -34 10 -82 10 -80 -1 -82 -1 -50 -15 26 -11 32 -20 32
-44 0 -32 -108 -331 -120 -331 -11 0 -122 301 -124 334 -1 23 4 31 19 34 11 2
24 8 29 13 6 5 -50 9 -140 9 l-149 0 32 -20 c32 -19 60 -64 82 -130 10 -32 7
-45 -33 -145 -24 -61 -47 -110 -51 -110 -12 0 -145 338 -143 360 2 12 12 21
26 23 12 2 22 8 22 13 0 5 -56 9 -130 9 -80 0 -130 -4 -130 -10z"/>
<path d="M2864 1125 l26 -24 0 -258 c0 -142 -4 -263 -8 -269 -4 -6 -16 -16
-27 -22 -16 -9 4 -11 95 -11 112 -1 114 0 92 17 -32 25 -43 123 -17 152 18 20
19 20 52 -27 19 -27 43 -65 54 -86 19 -36 19 -38 2 -45 -10 -4 30 -9 90 -12
133 -6 341 3 310 14 -11 4 -24 18 -27 29 -3 12 -6 102 -6 200 l0 177 -85 0
c-50 0 -85 -4 -85 -10 0 -5 7 -10 15 -10 27 0 35 -47 35 -200 0 -127 -3 -151
-18 -170 -28 -35 -58 -11 -151 121 l-84 120 49 50 c27 27 66 57 86 67 21 9 38
20 38 25 0 4 -44 7 -97 7 -88 -1 -96 -2 -79 -15 11 -8 23 -15 28 -15 4 0 8 -9
8 -21 0 -13 -28 -49 -72 -93 l-73 -71 -3 203 -2 202 -87 0 -86 0 27 -25z"/>
<path d="M2125 954 c-36 -18 -77 -74 -95 -128 -17 -53 -8 -151 19 -204 69
-135 272 -128 337 11 55 119 15 265 -86 317 -47 24 -131 26 -175 4z m131 -35
c16 -18 20 -40 22 -147 2 -76 -1 -142 -8 -165 -12 -39 -39 -58 -72 -49 -36 9
-43 42 -43 187 0 118 3 145 18 168 21 33 56 35 83 6z"/>
<path d="M2678 919 l-48 -51 0 46 0 46 -85 0 c-79 0 -111 -11 -66 -23 27 -7
34 -64 30 -227 -4 -126 -5 -132 -29 -150 l-25 -20 120 1 c92 0 114 3 92 11
-35 12 -40 34 -35 155 5 142 37 195 97 160 37 -22 54 -22 74 1 19 21 22 54 7
83 -8 13 -21 19 -47 19 -31 0 -44 -8 -85 -51z"/>
<path d="M3787 940 l-47 -30 0 25 c0 25 -1 25 -86 25 l-87 0 27 -25 26 -24 0
-160 c0 -166 -3 -191 -25 -191 -8 0 -17 -4 -20 -10 -4 -6 34 -10 106 -10 111
0 111 0 88 19 -23 18 -24 26 -27 158 -3 138 -3 138 23 166 34 36 76 34 86 -3
4 -14 7 -84 8 -156 1 -119 -1 -134 -20 -158 l-20 -26 106 0 c68 0 104 4 100
10 -3 6 -12 10 -19 10 -21 0 -26 34 -26 194 l0 148 -34 34 c-45 45 -93 46
-159 4z"/>
<path d="M4165 957 c-37 -17 -83 -69 -91 -103 -15 -59 20 -130 78 -160 l30
-16 -30 -18 c-65 -40 -83 -113 -38 -153 l24 -21 -29 -18 c-37 -23 -45 -43 -29
-73 22 -41 86 -58 197 -53 106 5 147 20 182 64 25 32 28 90 5 122 -28 40 -66
52 -164 52 -97 0 -130 10 -130 39 0 32 32 49 101 53 135 8 203 100 149 201
l-20 37 40 0 c36 0 40 2 40 25 0 24 -3 25 -53 25 -30 0 -94 2 -143 5 -65 4
-97 2 -119 -8z m142 -54 c21 -52 15 -164 -12 -193 -25 -28 -65 -23 -83 10 -17
33 -12 181 7 203 7 10 27 17 43 17 24 0 32 -6 45 -37z m87 -449 c21 -21 20
-37 -5 -60 -25 -22 -156 -32 -201 -15 -38 14 -51 42 -32 69 14 20 24 22 119
22 81 0 107 -3 119 -16z"/>
<path d="M1394 327 c15 -11 17 -27 14 -115 -3 -94 -2 -102 16 -102 15 0 16 3
7 14 -7 9 -11 43 -9 91 l3 76 80 -98 80 -98 3 109 c1 61 8 116 14 123 8 10 3
13 -28 13 -33 0 -36 -2 -20 -13 14 -10 16 -24 14 -70 l-3 -58 -55 71 c-51 66
-57 70 -94 70 -35 0 -38 -2 -22 -13z"/>
<path d="M2871 319 c6 -13 10 -58 7 -115 l-3 -94 26 0 c22 0 25 3 21 29 -6 42
12 46 34 6 14 -27 25 -35 47 -35 31 0 30 3 -10 56 -30 40 -29 47 8 78 l31 26
-37 0 c-30 0 -35 -3 -26 -13 8 -10 4 -20 -19 -42 l-30 -29 0 77 0 77 -30 0
c-28 0 -30 -2 -19 -21z"/>
<path d="M3258 329 c-10 -5 -18 -21 -18 -34 0 -16 -6 -25 -15 -25 -8 0 -15 -4
-15 -10 0 -5 7 -10 16 -10 14 0 16 -11 12 -70 -4 -69 -3 -70 22 -70 25 0 25 1
22 66 -3 48 0 69 10 76 10 7 10 11 1 15 -15 6 -18 63 -3 63 6 0 10 -7 10 -16
0 -9 7 -14 18 -12 9 2 17 10 17 18 0 18 -52 25 -77 9z"/>
<path d="M1891 286 c-19 -20 -30 -36 -23 -36 8 0 12 -21 12 -65 0 -54 3 -66
20 -75 14 -8 26 -8 40 0 23 13 27 22 5 14 -12 -5 -15 5 -15 60 0 52 3 66 15
66 8 0 15 5 15 10 0 6 -6 10 -14 10 -8 0 -16 12 -18 26 l-3 25 -34 -35z"/>
<path d="M1702 247 c-29 -31 -30 -99 -2 -127 26 -26 53 -25 82 2 13 13 19 20
14 15 -19 -14 -55 -7 -66 12 -18 34 -11 41 36 41 42 0 45 1 38 23 -17 58 -65
74 -102 34z m62 -9 c9 -35 8 -38 -19 -38 -25 0 -31 13 -19 44 9 23 31 19 38
-6z"/>
<path d="M2178 233 c11 -21 25 -56 32 -78 19 -60 26 -61 46 -8 24 67 30 70 44
26 7 -21 17 -47 23 -58 9 -18 11 -16 24 20 7 21 9 41 5 44 -13 9 -33 72 -26
82 3 5 -11 9 -30 9 -37 0 -44 -8 -25 -27 8 -8 7 -19 -4 -39 l-15 -29 -12 30
c-6 16 -9 37 -7 47 4 15 -1 18 -34 18 l-39 0 18 -37z"/>
<path d="M2365 230 l-1 -40 18 37 c22 45 22 43 1 43 -14 0 -18 -9 -18 -40z"/>
<path d="M2481 244 c-29 -37 -27 -89 4 -119 73 -74 165 46 93 122 -29 31 -71
30 -97 -3z m70 -5 c13 -25 7 -105 -9 -121 -20 -20 -32 4 -32 66 0 34 3 66 7
69 11 12 22 8 34 -14z"/>
<path d="M2680 255 c8 -10 11 -37 8 -80 -4 -64 -4 -65 22 -65 24 0 25 2 24 58
-2 105 -1 102 -35 102 -27 0 -30 -2 -19 -15z"/>
<path d="M2757 252 c-15 -17 -14 -18 13 -20 24 -2 30 2 30 18 0 25 -22 26 -43
2z"/>
<path d="M3391 244 c-42 -53 -10 -144 49 -144 64 0 96 108 44 149 -36 28 -68
26 -93 -5z m70 -18 c10 -35 -2 -108 -19 -114 -27 -9 -39 101 -15 141 9 15 27
1 34 -27z"/>
<path d="M3588 190 c3 -79 4 -80 30 -80 29 0 29 -2 23 138 -1 17 -7 22 -28 22
l-28 0 3 -80z"/>
<path d="M3667 252 c-15 -17 -15 -18 14 -20 24 -2 30 1 27 14 -4 25 -22 27
-41 6z"/>
<path d="M3882 263 c67 -138 77 -166 66 -186 -16 -32 -17 -32 -32 -11 -12 15
-17 17 -27 6 -11 -10 -10 -15 3 -28 9 -9 24 -14 32 -11 17 7 22 16 79 155 l35
82 -25 0 c-20 0 -23 -3 -15 -13 12 -14 -4 -87 -18 -87 -4 0 -14 18 -22 39 -11
28 -13 42 -5 50 8 8 -1 11 -32 11 -23 0 -41 -3 -39 -7z"/>
<path d="M4121 244 c-42 -53 -10 -144 49 -144 64 0 96 108 44 149 -36 28 -68
26 -93 -5z m70 -18 c10 -35 -2 -108 -19 -114 -27 -9 -39 101 -15 141 9 15 27
1 34 -27z"/>
<path d="M4318 213 c6 -79 21 -109 52 -105 14 1 41 2 60 2 l35 -1 -3 81 c-3
79 -4 80 -30 80 -27 0 -27 -1 -24 -60 4 -59 -9 -97 -29 -84 -5 3 -9 36 -9 75
l0 69 -28 0 -29 0 5 -57z"/>
<path d="M2010 185 c0 -11 12 -15 50 -15 38 0 50 4 50 15 0 11 -12 15 -50 15
-38 0 -50 -4 -50 -15z"/>
<path d="M1264 139 c-3 -6 1 -18 10 -27 15 -15 17 -15 32 0 9 9 13 21 10 27
-9 14 -43 14 -52 0z"/>
</g>
</svg>
