<?xml version="1.0" standalone="no"?>
<!DOCTYPE svg PUBLIC "-//W3C//DTD SVG 20010904//EN"
 "http://www.w3.org/TR/2001/REC-SVG-20010904/DTD/svg10.dtd">
<svg version="1.0" xmlns="http://www.w3.org/2000/svg"
 width="150.000000pt" height="150.000000pt" viewBox="0 0 150.000000 150.000000"
 preserveAspectRatio="xMidYMid meet">

<g transform="translate(0.000000,150.000000) scale(0.100000,-0.100000)"
fill="#000000" stroke="none">
<path d="M601 1484 c-138 -28 -291 -114 -388 -217 -106 -112 -163 -225 -190
-377 -58 -325 102 -639 401 -789 203 -101 459 -99 657 5 254 134 402 376 401
659 0 246 -102 444 -307 595 -156 115 -381 164 -574 124z m759 -509 l65 -65
-240 -240 -240 -240 -125 125 c-69 69 -132 125 -140 125 -8 0 -90 -75 -182
-167 l-168 -168 -130 130 c-71 71 -130 135 -130 141 0 6 30 39 66 74 l65 63
62 -61 c35 -34 66 -62 70 -62 4 0 35 28 70 63 34 35 111 110 170 167 l108 104
127 -127 c70 -70 132 -127 138 -127 6 0 83 74 172 165 90 91 166 165 170 165
4 0 37 -29 72 -65z"/>
</g>
</svg>
